# xmcd CD database file
#
# Track frame offsets:
#	150
#	28865
#	56141
#	76396
#	97128
#	118546
#	140087
#	158115
#	180709
#	203489
#
# Disc length: 3044 seconds
#
# Revision: 4
# Processed by: cddbd v1.5.2PL0 Copyright (c) Steve Scherf et al.
# Submitted via: CDex 1.70beta3
#
DISCID=8a0be20a
DTITLE=Gary Hughes - Once And Future King - Part I
DYEAR=2003
DGENRE=Melodic Hard Rock
TTITLE0=Excalibur
TTITLE1=Dragon Island Cathedral
TTITLE2=At The End Of Day
TTITLE3=The Reason Why
TTITLE4=Shapeshifter
TTITLE5=King For A Day
TTITLE6=Avalon
TTITLE7=Sinner
TTITLE8=In Flames
TTITLE9=Lies
EXTD=YEAR: 2003
EXTT0=
EXTT1=
EXTT2=
EXTT3=
EXTT4=
EXTT5=
EXTT6=
EXTT7=
EXTT8=
EXTT9=
PLAYORDER=
